<?xml version="1.0" encoding="UTF-8" standalone="no"?>
<!-- Created with Inkscape (http://www.inkscape.org/) -->
<svg id="svg3015" xmlns:rdf="http://www.w3.org/1999/02/22-rdf-syntax-ns#" xmlns="http://www.w3.org/2000/svg" height="36.543" width="282.85" version="1.1" xmlns:cc="http://creativecommons.org/ns#" xmlns:dc="http://purl.org/dc/elements/1.1/">
 <metadata id="metadata3020">
  <rdf:RDF>
   <cc:Work rdf:about="">
    <dc:format>image/svg+xml</dc:format>
    <dc:type rdf:resource="http://purl.org/dc/dcmitype/StillImage"/>
    <dc:title/>
   </cc:Work>
  </rdf:RDF>
 </metadata>
 <g id="layer1" transform="translate(-6.7781156,-1005.6758)">
  <g id="text3031" style="letter-spacing:0px;word-spacing:0px;" font-family="Sans" font-size="40px" line-height="125%" font-style="normal" font-weight="normal" fill="#000">
   <path id="path3036" d="m6.8562,1031.3c0.18229-0.1041,0.34505-0.1562,0.48828-0.1562h0.44922c0.091145,0,0.24739-0.01,0.46875-0.02,1.0026-0.091,1.595-0.1823,1.7773-0.2734,0.45573-0.2474,0.84635-0.6771,1.1719-1.2891,0.67708-1.3281,1.4388-3.2096,2.2852-5.6445,0.40364-1.1588,0.65754-1.862,0.76172-2.1094,0.32551-0.7812,0.63801-1.6015,0.9375-2.4609l1.8359-5.1367c0.28645-0.8073,0.97655-2.6563,2.0703-5.5469,0.27343-0.7291,0.60546-1.7057,0.99609-2.9297l0.56641-0.039,0.68359,0.02c0.55988,1.1068,1.0547,2.2982,1.4844,3.5742,0.23436,0.6771,0.61847,1.6862,1.1523,3.0273l2.9688,8.0274,1.582,4.3555c0.83331,2.4739,1.3802,3.9941,1.6406,4.5605,0.26039,0.5664,0.50128,0.9408,0.72266,1.123,0.06508,0.052,0.30922,0.1303,0.73242,0.2344,0.42315,0.1042,0.71938,0.1823,0.88867,0.2344,0.59893,0.1693,1.0156,0.3125,1.25,0.4297,0.05206,0.1432,0.0781,0.2539,0.07813,0.332-0.000027,0.065-0.01956,0.1628-0.05859,0.293-0.41669,0.013-0.70966,0.02-0.87891,0.02-0.66409,0-1.836-0.02-3.5156-0.059l-1.9531-0.059-2.3633,0.039c-0.15627,0-0.31577-0.01-0.47852-0.029-0.16278-0.019-0.30275-0.029-0.41992-0.029h-0.42969c-0.14325-0.013-0.27345-0.052-0.39062-0.1172-0.000016-0.1823,0.03254-0.3581,0.09766-0.5273,0.15623-0.078,0.29946-0.1237,0.42969-0.1368l2.0508-0.1367c0.53384-0.026,0.93748-0.098,1.2109-0.2148,0.07811-0.2344,0.11717-0.4102,0.11719-0.5274-0.00002-0.2343-0.16929-0.8398-0.50781-1.8164-0.23439-0.651-0.43947-1.2695-0.61523-1.8554-0.1758-0.586-0.86916-2.513-2.0801-5.7813-0.53387-0.091-1.0026-0.1367-1.4062-0.1367l-4.1797,0.039-1.2305-0.02c-0.44272,0-0.931,0.033-1.4648,0.098-0.16928,0.3906-0.27996,0.6706-0.33203,0.8398l-1.7188,5.3711c-0.72917,2.0443-1.0938,3.1706-1.0938,3.3789-0.000006,0.1172,0.05859,0.3125,0.17578,0.586,0.27343,0.078,0.63801,0.1497,1.0938,0.2148l2.6562,0.2344c0.14322,0.1172,0.21483,0.2213,0.21484,0.3125-0.00001,0.065-0.01954,0.1627-0.05859,0.293-0.58595,0.013-1.0352,0.019-1.3477,0.019-1.0417,0-2.2526-0.033-3.6328-0.098-0.63802-0.026-1.0938-0.039-1.3672-0.039-0.27344,0-0.7487,0.013-1.4258,0.039-0.44271,0.026-0.76172,0.039-0.95703,0.039-0.3125,0-0.71615-0.02-1.2109-0.059v-0.1172c3E-7-0.091,0.026042-0.2148,0.078125-0.3711zm9.3164-11.719c1.3932,0.078,2.9818,0.1172,4.7656,0.1172,1.0156,0,1.9075-0.033,2.6758-0.098-0.13022-0.5078-0.27996-0.9831-0.44922-1.4258-0.84637-2.2656-1.3151-3.5156-1.4062-3.75l-1.7773-4.5117-0.19531-0.3516c-0.07814,0.1563-0.3646,0.8269-0.85938,2.0118-0.83334,2.0312-1.4323,3.6133-1.7969,4.746-0.16928,0.5079-0.34506,1.0124-0.52734,1.5137-0.1823,0.5013-0.29623,0.8529-0.3418,1.0547-0.04558,0.2018-0.11394,0.4069-0.20508,0.6152z"/>
   <path id="path3038" d="m34.923,1031.3c0.32552-0.091,0.70312-0.1693,1.1328-0.2344,0.82031-0.1171,1.3118-0.2539,1.4746-0.4101,0.16276-0.1563,0.24414-0.5143,0.24414-1.0742l0.03906-0.7032c0.01302-0.2604,0.01953-0.5924,0.01953-0.9961l-0.03906-5.996c-0.000004-0.8073-0.10417-1.3282-0.3125-1.5625-0.35157-0.3646-1.0026-0.6185-1.9531-0.7618v-0.7031c0.95052-0.2604,1.6797-0.5989,2.1875-1.0156,0.74218-0.5859,1.3672-1.3802,1.875-2.3828l0.66406,0.02c0.03906,0.612,0.05859,1.0482,0.05859,1.3086v1.2891l0.01953,0.3515c0.15624-0.1041,0.33854-0.2343,0.54688-0.3906,0.78124-0.5859,1.582-1.0644,2.4023-1.4355s1.5495-0.6283,2.1875-0.7715c0.40363-0.1042,0.85936-0.1563,1.3672-0.1563,1.0677,0,1.9857,0.2865,2.7539,0.8594,0.76821,0.5729,1.2663,1.2468,1.4941,2.0215,0.22785,0.7747,0.34178,2.3144,0.3418,4.6191v2.9492c-0.000017,0.078-0.0098,0.3386-0.0293,0.7813-0.01955,0.4427-0.02931,0.9505-0.0293,1.5234-0.000017,0.9115,0.03905,1.4909,0.11719,1.7383,0.06509,0.1693,0.23436,0.3385,0.50781,0.5078,1.25,0.1693,1.9791,0.3711,2.1875,0.6055v0.1562c-0.00002,0.1302-0.03908,0.293-0.11719,0.4883h-0.37109l-2.5781-0.02-2.5391,0.039c-0.93751,0.026-1.8034,0.02-2.5977-0.019l-0.11719-0.4101c-0.000012-0.078,0.04556-0.1823,0.13672-0.3125,0.35155-0.1563,0.84634-0.2605,1.4844-0.3125,0.37759-0.026,0.63801-0.065,0.78125-0.1172,0.14322-0.052,0.319-0.1563,0.52734-0.3125,0.15624-0.3125,0.23436-0.5729,0.23438-0.7813-0.000015-0.091-0.01304-0.2734-0.03906-0.5469-0.03908-0.5989-0.06512-2.0898-0.07813-4.4726v-1.0156l0.03906-1.5625c-0.000014-1.6797-0.33856-2.8386-1.0156-3.4766-0.6771-0.638-1.582-0.957-2.7148-0.957-0.87241,0-1.7253,0.192-2.5586,0.5761-0.83334,0.3842-1.6406,0.9603-2.4219,1.7286-0.02605,0.625-0.03907,1.1588-0.03906,1.6015l0.05859,4.3164c-0.000006,2.2526,0.03255,3.6328,0.09766,4.1407,0.02604,0.2083,0.07161,0.3515,0.13672,0.4296,0.10416,0.1042,0.31249,0.1888,0.625,0.2539,0.31249,0.065,0.67382,0.1563,1.084,0.2735,0.41015,0.1172,0.68033,0.1888,0.81055,0.2148,0.26041,0.065,0.43619,0.1953,0.52734,0.3907l-0.01953,0.3906h-2.0508l-4.2188-0.059c-0.97656,0.026-1.5951,0.039-1.8555,0.039h-0.48828l-0.03906-0.2539c-0.000001-0.091,0.01953-0.2213,0.05859-0.3906z"/>
   <path id="path3040" d="m60.157,1012.6,0.60547,0.02,0.07813,1.8554-0.03906,2.4024c0.24739,0.013,0.40364,0.019,0.46875,0.019,0.33854,0,0.98306-0.026,1.9336-0.078,0.61197-0.039,1.1979-0.059,1.7578-0.059,0.26041,0,0.65103,0.01,1.1719,0.019,0.02603,0.2605,0.03905,0.4688,0.03906,0.625-0.000012,0.1693-0.03907,0.4362-0.11719,0.8008h-0.33203l-3.0273,0.098-1.5039,0.039-0.35156,0.039c-0.10417,0.3255-0.15626,0.7031-0.15625,1.1328l0.05859,2.9297-0.03906,5.1562c-0.000006,1.3542,0.17578,2.2526,0.52734,2.6954,0.33853,0.4557,0.84635,0.6835,1.5234,0.6835,0.33853,0,0.97655-0.1041,1.9141-0.3125,0.28645-0.065,0.67056-0.2799,1.1523-0.6445h0.17578c0.11718,0,0.21158,0.036,0.2832,0.1074,0.0716,0.072,0.10741,0.1661,0.10742,0.2832l-0.01953,0.1368c-0.55991,0.6119-1.2012,1.0579-1.9238,1.3379-0.72266,0.2799-1.683,0.4199-2.8809,0.4199-0.84636,0-1.5462-0.1953-2.0996-0.586-0.55339-0.3906-0.90821-0.8528-1.0645-1.3867-0.15625-0.5338-0.23438-1.6992-0.23438-3.4961l0.07813-4.3945-0.01953-2.1094v-0.7812c-0.000004-0.3646-0.01302-0.7292-0.03906-1.0938l-0.33203-0.019-1.6016,0.059-0.15625,0.019c-0.14323,0-0.25065-0.033-0.32227-0.098s-0.10742-0.1433-0.10742-0.2344c-0.000001-0.1563,0.04883-0.2832,0.14648-0.3809,0.09766-0.098,0.39388-0.2506,0.88867-0.459,0.33854-0.1432,0.73242-0.4134,1.1816-0.8105,0.44922-0.3971,0.83007-0.8366,1.1426-1.3184,0.15625-0.2604,0.3776-0.7552,0.66406-1.4843,0.20833-0.5339,0.36458-0.9115,0.46875-1.1329z"/>
   <path id="path3042" d="m67.637,1024.1c-0.000002-0.8855,0.18554-1.8327,0.55664-2.8418,0.37109-1.0091,0.93424-1.9141,1.6895-2.7149,0.7552-0.8008,1.556-1.3965,2.4023-1.7871,1.1849-0.5469,2.6302-0.8203,4.3359-0.8203,2.4349,0,4.4694,0.8333,6.1035,2.5s2.4512,3.6719,2.4512,6.0156c-0.000019,2.0834-0.85614,3.9421-2.5684,5.5762s-3.877,2.4512-6.4941,2.4512c-1.6146,0-3.138-0.4232-4.5703-1.2696-1.0677-0.638-1.9857-1.582-2.7539-2.832-0.76823-1.25-1.1523-2.6758-1.1523-4.2773zm8.6328,7.6171c0.98957,0,1.9433-0.2669,2.8613-0.8007,0.91796-0.5339,1.6504-1.39,2.1973-2.5684,0.54686-1.1784,0.8203-2.5423,0.82031-4.0918-0.000016-1.0156-0.2116-2.194-0.63476-3.5352-0.42319-1.3411-1.0742-2.3469-1.9531-3.0175-0.87892-0.6706-1.9108-1.0059-3.0957-1.0059-0.85938,0-1.735,0.2018-2.627,0.6055-0.89193,0.4036-1.6471,1.1784-2.2656,2.3242-0.61849,1.1458-0.92774,2.7734-0.92773,4.8828-0.000004,2.3698,0.5371,4.1634,1.6113,5.3809,1.0742,1.2174,2.4121,1.8261,4.0137,1.8261z"/>
   <path id="path3044" d="m87.345,1031.3c0.32552-0.091,0.70312-0.1693,1.1328-0.2344,0.82031-0.1171,1.3118-0.2539,1.4746-0.4101,0.16276-0.1563,0.24414-0.5143,0.24414-1.0742l0.03906-0.7032c0.01302-0.2604,0.01953-0.5924,0.01953-0.9961l-0.03906-5.996c-0.000004-0.8073-0.10417-1.3282-0.3125-1.5625-0.35157-0.3646-1.0026-0.6185-1.9531-0.7618v-0.7031c0.95052-0.2604,1.6797-0.5989,2.1875-1.0156,0.74218-0.5859,1.3672-1.3802,1.875-2.3828l0.66406,0.02c0.03906,0.612,0.05859,1.0482,0.05859,1.3086v1.2891l0.01953,0.3515c0.15624-0.1041,0.33854-0.2343,0.54688-0.3906,0.78124-0.5859,1.582-1.0644,2.4023-1.4355s1.5495-0.6283,2.1875-0.7715c0.40363-0.1042,0.85936-0.1563,1.3672-0.1563,1.0677,0,1.9857,0.2865,2.7539,0.8594,0.76822,0.5729,1.2663,1.2468,1.4941,2.0215,0.22785,0.7747,0.34178,2.3144,0.3418,4.6191v2.9492c-0.00002,0.078-0.01,0.3386-0.0293,0.7813-0.0195,0.4427-0.0293,0.9505-0.0293,1.5234-0.00002,0.9115,0.039,1.4909,0.11718,1.7383,0.0651,0.1693,0.23436,0.3385,0.50782,0.5078,1.25,0.1693,1.9791,0.3711,2.1875,0.6055v0.1562c-0.00002,0.1302-0.0391,0.293-0.11719,0.4883h-0.37109l-2.5781-0.02-2.5391,0.039c-0.93751,0.026-1.8034,0.02-2.5977-0.019l-0.11719-0.4101c-0.000012-0.078,0.04556-0.1823,0.13672-0.3125,0.35155-0.1563,0.84634-0.2605,1.4844-0.3125,0.37759-0.026,0.63801-0.065,0.78125-0.1172,0.14321-0.052,0.31899-0.1563,0.52734-0.3125,0.15624-0.3125,0.23436-0.5729,0.23438-0.7813-0.00002-0.091-0.013-0.2734-0.0391-0.5469-0.0391-0.5989-0.0651-2.0898-0.0781-4.4726v-1.0156l0.0391-1.5625c-0.00001-1.6797-0.33855-2.8386-1.0156-3.4766-0.6771-0.638-1.582-0.957-2.7148-0.957-0.87241,0-1.7253,0.192-2.5586,0.5761-0.83334,0.3842-1.6406,0.9603-2.4219,1.7286-0.02605,0.625-0.03907,1.1588-0.03906,1.6015l0.05859,4.3164c-0.000006,2.2526,0.03255,3.6328,0.09766,4.1407,0.02604,0.2083,0.07161,0.3515,0.13672,0.4296,0.10416,0.1042,0.31249,0.1888,0.625,0.2539,0.31249,0.065,0.67382,0.1563,1.084,0.2735,0.41015,0.1172,0.68033,0.1888,0.81055,0.2148,0.26041,0.065,0.43619,0.1953,0.52734,0.3907l-0.01953,0.3906h-2.0508l-4.2188-0.059c-0.97656,0.026-1.5951,0.039-1.8555,0.039h-0.48828l-0.03906-0.2539c-0.000001-0.091,0.01953-0.2213,0.05859-0.3906z"/>
   <path id="path3046" d="m114.32,1039c0.2474-0.1693,0.46875-0.2539,0.66406-0.2539,0.59896,0,1.2826,0.345,2.0508,1.0351,0.13021,0.1172,0.22787,0.2019,0.29297,0.2539l0.0977,0.098c0.3125,0.2604,0.63802,0.3906,0.97656,0.3906,0.49479,0,0.98958-0.1693,1.4844-0.5078,0.49479-0.3385,0.89192-0.8073,1.1914-1.4062,0.40364-0.8334,0.69987-1.7709,0.88868-2.8125,0.18879-1.0417,0.28319-2.3047,0.2832-3.7891l-0.0195-3.0469,0.0391-2.0898c-0.00001-1.4193-0.0521-3.6068-0.15625-6.5625l-0.11719-7.3047,0.0195-3.7695c0.013-0.3386-0.0456-0.6315-0.17578-0.8789-0.0781-0.1302-0.2181-0.2474-0.41992-0.3516-0.20183-0.1041-0.49154-0.1627-0.86914-0.1758l-1.4453-0.098c-0.45573,0-0.76823-0.046-0.9375-0.1368-0.0521-0.1952-0.0781-0.345-0.0781-0.4492l0.0195-0.2344c0.28646,0.0001,0.63802,0.013,1.0547,0.039,0.80729,0.039,1.595,0.059,2.3633,0.059,0.36458,0,0.84635-0.01,1.4453-0.02,0.45573-0.026,0.77474-0.039,0.95704-0.039h2.8711c0.40364,0,0.83983,0.02,1.3086,0.059-0.00001,0.2995-0.013,0.5339-0.0391,0.7031-1.1198,0.052-1.8294,0.1303-2.1289,0.2344-0.29948,0.1042-0.52084,0.2474-0.66406,0.4297-0.0911,0.1172-0.13672,0.3451-0.13672,0.6836l-0.0781,2.0312,0.0195,0.4883c0.026,0.2344,0.0391,0.6836,0.0391,1.3477v0.7812c-0.00001,0.4558,0.007,0.8594,0.0195,1.211,0.026,0.5208,0.0391,0.8333,0.0391,0.9375-0.00001,0.1172-0.013,0.4232-0.0391,0.9179-0.013,0.1433-0.0195,0.267-0.0195,0.3711l0.23438,5.4297-0.0391,3.4961v2.2656c0,1.3021-0.2474,3.1185-0.74218,5.4492-0.36459,1.6928-1.0221,3.2325-1.9727,4.6192-0.95052,1.3867-1.888,2.334-2.8125,2.8418-0.92448,0.5078-2.155,0.7617-3.6914,0.7617-0.82031,0-1.4779-0.1953-1.9726-0.5859-0.33854-0.2735-0.50781-0.6381-0.50781-1.0938,0-0.5469,0.23437-0.9896,0.70312-1.3281z"/>
   <path id="path3048" d="m131.78,1024.1c0-0.8855,0.18554-1.8327,0.55664-2.8418,0.37109-1.0091,0.93424-1.9141,1.6894-2.7149,0.75521-0.8008,1.556-1.3965,2.4024-1.7871,1.1849-0.5469,2.6302-0.8203,4.3359-0.8203,2.4349,0,4.4694,0.8333,6.1035,2.5s2.4512,3.6719,2.4512,6.0156c-0.00002,2.0834-0.85614,3.9421-2.5684,5.5762-1.7122,1.6341-3.877,2.4512-6.4941,2.4512-1.6146,0-3.138-0.4232-4.5703-1.2696-1.0677-0.638-1.9857-1.582-2.7539-2.832-0.76823-1.25-1.1523-2.6758-1.1523-4.2773zm8.6328,7.6171c0.98957,0,1.9434-0.2669,2.8613-0.8007,0.91795-0.5339,1.6504-1.39,2.1973-2.5684,0.54686-1.1784,0.8203-2.5423,0.82032-4.0918-0.00002-1.0156-0.21161-2.194-0.63477-3.5352-0.42319-1.3411-1.0742-2.3469-1.9531-3.0175-0.87892-0.6706-1.9108-1.0059-3.0957-1.0059-0.85938,0-1.735,0.2018-2.627,0.6055-0.89193,0.4036-1.6471,1.1784-2.2656,2.3242s-0.92774,2.7734-0.92774,4.8828c0,2.3698,0.53711,4.1634,1.6113,5.3809,1.0742,1.2174,2.4121,1.8261,4.0137,1.8261z"/>
   <path id="path3050" d="m153.57,1026.9c0.48177,1.237,0.84635,2.0377,1.0938,2.4023,0.49479,0.7422,1.0872,1.3184,1.7774,1.7285,0.6901,0.4102,1.4388,0.6153,2.2461,0.6153,0.74218,0,1.4779-0.319,2.207-0.9571,0.52082-0.4817,0.78124-1.0416,0.78125-1.6796-0.00001-0.8464-0.306-1.6276-0.91797-2.3438-0.61198-0.7031-1.7741-1.3769-3.4863-2.0215-1.7122-0.6445-2.8613-1.3314-3.4473-2.0605-0.58594-0.7292-0.87891-1.5625-0.87891-2.5,0-0.8854,0.24089-1.6667,0.72266-2.3438,0.48177-0.677,1.1458-1.1881,1.9922-1.5332,0.84635-0.345,1.6276-0.5175,2.3438-0.5176,0.92447,0.0001,1.7546,0.072,2.4902,0.2149,0.73567,0.1432,1.3704,0.3646,1.9043,0.664,0.10415,0.6641,0.18879,1.6407,0.2539,2.9297l0.0391,0.625c-0.16929,0.013-0.31251,0.02-0.42969,0.02h-0.27344c-0.39063-1.0808-0.98634-1.9369-1.7871-2.5684-0.80079-0.6315-1.5918-0.9472-2.373-0.9473-0.78126,0.0001-1.4128,0.2377-1.8945,0.7129-0.48177,0.4753-0.72266,1.0971-0.72265,1.8653-0.00001,0.5859,0.19531,1.1067,0.58594,1.5625,0.39062,0.4557,1.3053,0.9765,2.7441,1.5625,1.4388,0.5859,2.487,1.1295,3.1445,1.6308,0.65754,0.5013,1.1426,1.1101,1.4551,1.8262,0.31248,0.7161,0.46873,1.3997,0.46875,2.0508-0.00002,0.8984-0.29624,1.7383-0.88868,2.5195-0.59246,0.7813-1.3346,1.3314-2.2266,1.6504-0.89193,0.319-1.6895,0.4785-2.3926,0.4785-1.6536,0-3.1771-0.306-4.5703-0.918-0.13021-0.1041-0.20182-0.2994-0.21484-0.5859-0.00001-0.1172-0.013-0.306-0.0391-0.5664-0.20833-1.7578-0.3125-2.7995-0.3125-3.125,0-0.1562,0.0325-0.2604,0.0977-0.3125,0.0651-0.052,0.23437-0.078,0.50781-0.078z"/>
   <path id="path3052" d="m180.82,1021.6-7.832,0.059-1.4844,0c-0.59896,0-1.2109,0.026-1.8359,0.078-0.11719,0.3907-0.17578,0.6576-0.17578,0.8008l0.0195,0.1953v0.1953l-0.0195,0.9571c0,0.7943,0.25065,1.7676,0.75196,2.9199,0.50129,1.1523,1.2174,2.0312,2.1484,2.6367,0.93098,0.6055,2.0931,0.9277,3.4863,0.9668,0.74218-0.039,1.3346-0.1302,1.7773-0.2734,0.4427-0.1433,1.0677-0.4753,1.875-0.9961l1.4062-1.1524,0.11719,0.7813c-0.00001,0.091-0.007,0.1888-0.0195,0.293-0.58595,0.7421-1.3281,1.3932-2.2266,1.9531-0.89845,0.5599-1.8099,0.97-2.7344,1.2304-0.44272,0.1172-1.1719,0.1758-2.1875,0.1758-0.92448,0-1.8359-0.1888-2.7344-0.5664-1.3281-0.5729-2.373-1.4941-3.1348-2.7636-0.76172-1.2696-1.1426-2.8093-1.1426-4.6192,0-0.5729,0.10743-1.3086,0.32227-2.207s0.60221-1.8555,1.1621-2.8711c0.3776-0.6901,0.83984-1.2565,1.3867-1.6992,0.78124-0.625,1.4648-1.0612,2.0508-1.3086,0.84635-0.3516,1.8294-0.5274,2.9492-0.5274,1.2109,0,2.2005,0.2214,2.9688,0.6641,1.0416,0.5859,1.8196,1.3412,2.334,2.2656,0.51431,0.9245,0.77147,1.7709,0.77149,2.5391zm-10.898-0.7031,0.91797,0c0.66405,0,2.6432-0.1042,5.9375-0.3125,0.52082-0.026,0.83983-0.078,0.95703-0.1563,0.23436-0.2473,0.35155-0.4687,0.35156-0.664-0.00001-0.4037-0.13022-0.8626-0.39062-1.377-0.26043-0.5143-0.66082-0.9114-1.2012-1.1914-0.54038-0.2799-1.1686-0.4199-1.8848-0.4199-1.5104,0-2.7214,0.5664-3.6328,1.6992-0.70313,0.8594-1.0547,1.6667-1.0547,2.4219z"/>
   <path id="path3054" d="m191.78,1031.3c0.18229-0.1041,0.34505-0.1562,0.48828-0.1562h0.44922c0.0911,0,0.24739-0.01,0.46875-0.02,1.0026-0.091,1.595-0.1823,1.7773-0.2734,0.45573-0.2474,0.84635-0.6771,1.1719-1.2891,0.67708-1.3281,1.4388-3.2096,2.2852-5.6445,0.40364-1.1588,0.65755-1.862,0.76172-2.1094,0.32552-0.7812,0.63802-1.6015,0.9375-2.4609l1.8359-5.1367c0.28645-0.8073,0.97655-2.6563,2.0703-5.5469,0.27343-0.7291,0.60546-1.7057,0.9961-2.9297l0.5664-0.039,0.6836,0.02c0.55988,1.1068,1.0547,2.2982,1.4844,3.5742,0.23436,0.6771,0.61847,1.6862,1.1523,3.0273l2.9688,8.0274,1.582,4.3555c0.83331,2.4739,1.3802,3.9941,1.6406,4.5605,0.26039,0.5664,0.50128,0.9408,0.72266,1.123,0.0651,0.052,0.30922,0.1303,0.73242,0.2344,0.42315,0.1042,0.71937,0.1823,0.88867,0.2344,0.59893,0.1693,1.0156,0.3125,1.25,0.4297,0.0521,0.1432,0.0781,0.2539,0.0781,0.332-0.00003,0.065-0.0196,0.1628-0.0586,0.293-0.41669,0.013-0.70966,0.02-0.8789,0.02-0.66409,0-1.836-0.02-3.5156-0.059l-1.9531-0.059-2.3633,0.039c-0.15626,0-0.31577-0.01-0.47851-0.029-0.16278-0.019-0.30275-0.029-0.41992-0.029h-0.42969c-0.14325-0.013-0.27345-0.052-0.39063-0.1172-0.00001-0.1823,0.0325-0.3581,0.0977-0.5273,0.15623-0.078,0.29946-0.1237,0.42969-0.1368l2.0508-0.1367c0.53383-0.026,0.93748-0.098,1.2109-0.2148,0.0781-0.2344,0.11716-0.4102,0.11718-0.5274-0.00002-0.2343-0.16929-0.8398-0.50781-1.8164-0.23439-0.651-0.43947-1.2695-0.61523-1.8554-0.1758-0.586-0.86916-2.513-2.0801-5.7813-0.53387-0.091-1.0026-0.1367-1.4062-0.1367l-4.1797,0.039-1.2305-0.02c-0.44271,0-0.931,0.033-1.4648,0.098-0.16928,0.3906-0.27996,0.6706-0.33203,0.8398l-1.7188,5.3711c-0.72917,2.0443-1.0938,3.1706-1.0938,3.3789-0.00001,0.1172,0.0586,0.3125,0.17578,0.586,0.27343,0.078,0.63801,0.1497,1.0938,0.2148l2.6562,0.2344c0.14322,0.1172,0.21483,0.2213,0.21484,0.3125-0.00001,0.065-0.0195,0.1627-0.0586,0.293-0.58595,0.013-1.0352,0.019-1.3477,0.019-1.0417,0-2.2526-0.033-3.6328-0.098-0.63802-0.026-1.0938-0.039-1.3672-0.039-0.27344,0-0.7487,0.013-1.4258,0.039-0.44271,0.026-0.76172,0.039-0.95703,0.039-0.3125,0-0.71614-0.02-1.2109-0.059v-0.1172c0-0.091,0.026-0.2148,0.0781-0.3711zm9.3164-11.719c1.3932,0.078,2.9818,0.1172,4.7656,0.1172,1.0156,0,1.9075-0.033,2.6758-0.098-0.13022-0.5078-0.27996-0.9831-0.44922-1.4258-0.84637-2.2656-1.3151-3.5156-1.4062-3.75l-1.7773-4.5117-0.19531-0.3516c-0.0781,0.1563-0.3646,0.8269-0.85938,2.0118-0.83334,2.0312-1.4323,3.6133-1.7969,4.746-0.16928,0.5079-0.34507,1.0124-0.52735,1.5137-0.1823,0.5013-0.29623,0.8529-0.34179,1.0547-0.0456,0.2018-0.11395,0.4069-0.20508,0.6152z"/>
   <path id="path3056" d="m224.38,1033.2c-0.15625-0.078-0.65755-0.293-1.5039-0.6446-0.98959-0.638-1.6146-1.1132-1.875-1.4257-0.26042-0.3125-0.39063-0.6576-0.39063-1.0352,0-0.3385,0.0977-0.612,0.29297-0.8203,0.28646-0.2995,0.85286-0.5859,1.6992-0.8594,0.84635-0.2734,1.543-0.5403,2.0898-0.8008-0.16927-0.1171-0.4362-0.2864-0.80078-0.5078-1.9401-1.1979-2.9102-2.858-2.9102-4.9804,0-1.7448,0.61523-3.2194,1.8457-4.4239,1.2305-1.2044,2.8092-1.8066,4.7363-1.8066,0.87239,0,1.6732,0.1237,2.4023,0.3711,0.41666,0.1302,1.0352,0.4557,1.8555,0.9765,0.52082,0.3256,0.82681,0.5079,0.91797,0.5469,0.20832,0.065,0.44269,0.098,0.70312,0.098,0.22134,0,0.75845-0.055,1.6113-0.166,0.85285-0.1107,1.3574-0.166,1.5137-0.1661,0.29947,0.0001,0.54686,0.059,0.74219,0.1758,0.15623,0.2605,0.23436,0.6967,0.23438,1.3086-0.00002,0.2084-0.0554,0.3646-0.16602,0.4688-0.11069,0.1042-0.2702,0.1562-0.47851,0.1562-0.3646,0-0.96682-0.1139-1.8066-0.3418-0.83986-0.2278-1.3509-0.3418-1.5332-0.3418-0.0651,0-0.18881,0.013-0.37109,0.039,0.55988,1.1198,0.83983,2.1419,0.83984,3.0664-0.00001,0.9245-0.29298,1.8815-0.8789,2.8711-0.58595,0.9896-1.3932,1.7448-2.4219,2.2656-1.0287,0.5209-2.0703,0.7813-3.125,0.7813-0.0781,0-0.29949-0.01-0.66406-0.02-1.1979,0-2.2982,0.2995-3.3008,0.8985-0.48178,0.2995-0.72266,0.5794-0.72266,0.8398,0,0.2735,0.23437,0.5404,0.70313,0.8008,1.237,0.6641,3.5807,1.0482,7.0312,1.1523,1.4974,0.052,2.6627,0.267,3.4961,0.6446,0.83332,0.3776,1.4616,0.9342,1.8848,1.6699,0.42316,0.7357,0.63474,1.4941,0.63476,2.2754-0.00002,1.0547-0.35809,2.0312-1.0742,2.9297-0.71616,0.8984-1.8034,1.6276-3.2617,2.1875s-3.1315,0.8398-5.0195,0.8398c-2.0833,0-3.6914-0.2539-4.8242-0.7617s-1.9368-1.0612-2.4121-1.6602c-0.47526-0.5989-0.71289-1.1914-0.71289-1.7773,0-0.5078,0.26042-1.1426,0.78125-1.9043,0.52084-0.7617,1.6016-1.5592,3.2422-2.3926,0.48177-0.2474,0.8138-0.4232,0.99609-0.5273zm-0.78125-11.152c0,1.1719,0.17578,2.1517,0.52735,2.9395,0.35156,0.7878,0.83333,1.3737,1.4453,1.7578s1.2305,0.5762,1.8555,0.5762c1.1328,0,2.0736-0.433,2.8223-1.2989,0.74868-0.8658,1.123-2.1842,1.123-3.955-0.00001-1.7839-0.39063-3.1413-1.1719-4.0723-0.78126-0.931-1.7253-1.3965-2.832-1.3965-1.237,0-2.1745,0.4427-2.8125,1.3281-0.63803,0.8855-0.95704,2.2592-0.95704,4.1211zm-0.64453,18.086c1.1849,0.9114,2.6823,1.3672,4.4922,1.3672,1.289,0,2.5749-0.2051,3.8574-0.6153,1.2825-0.4101,2.22-0.9961,2.8125-1.7578,0.59244-0.7617,0.88866-1.4811,0.88867-2.1582-0.00001-0.4167-0.10418-0.8301-0.3125-1.2402-0.20834-0.4102-0.49155-0.7487-0.8496-1.0156-0.35809-0.267-0.8301-0.4786-1.416-0.6348-0.41668-0.1172-1.0091-0.2018-1.7773-0.2539-2.1875-0.1693-3.5287-0.2539-4.0234-0.2539-1.3932,0-2.6367,0.4687-3.7305,1.4062-0.84636,0.7292-1.2695,1.6016-1.2695,2.6172,0,0.9375,0.4427,1.7839,1.3281,2.5391z"/>
   <path id="path3058" d="m252.87,1029.3c0.0781,0.1692,0.11717,0.2929,0.11719,0.3711-0.00002,0.1953-0.15627,0.5403-0.46875,1.0351-0.40366,0.6511-0.85288,1.1263-1.3477,1.4258-0.31251,0.1953-0.7422,0.293-1.2891,0.293-0.93751,0-1.6406-0.2865-2.1094-0.8594-0.28647-0.3385-0.48829-0.944-0.60547-1.8164l-2.1875,1.5234c-0.76823,0.4427-1.3542,0.7227-1.7578,0.8399-0.65105,0.1692-1.4323,0.2539-2.3438,0.2539-0.66406,0-1.1882-0.1986-1.5723-0.5957-0.38412-0.3972-0.57618-0.9082-0.57618-1.5332,0-0.8985,0.55013-1.9727,1.6504-3.2227s2.5944-2.2721,4.4824-3.0664c1.3281-0.5599,2.1419-0.918,2.4414-1.0742,0.026-0.4297,0.0391-0.8984,0.0391-1.4063-0.00001-1.6536-0.23113-2.7734-0.69335-3.3593-0.46225-0.586-1.1231-0.8789-1.9824-0.8789-0.89844,0-1.7383,0.3515-2.5195,1.0546-0.48177,0.4428-0.84636,1.2761-1.0938,2.5-0.0781,0.3386-0.22787,0.7032-0.44922,1.0938-0.5599,0.3646-1.0091,0.5469-1.3476,0.5469-0.28646,0-0.54688-0.085-0.78125-0.2539-0.13021-0.091-0.19532-0.1953-0.19532-0.3125,0-0.3386,0.36133-1.1035,1.084-2.295,0.72265-1.1914,1.6341-2.0833,2.7344-2.6757,1.1003-0.5925,2.0605-0.8887,2.8809-0.8887,1.1198,0,1.9531,0.1009,2.5,0.3027,0.54687,0.2019,1.0286,0.5567,1.4453,1.0645,0.41665,0.5078,0.67056,1.0612,0.76171,1.6601,0.0521,0.2865,0.0781,1.3086,0.0781,3.0664l-0.0586,3.1055,0.0195,2.2656c-0.00002,0.2995-0.007,0.5534-0.0195,0.7617-0.013,0.3777-0.0195,0.6576-0.0195,0.8399-0.00001,0.4297,0.12369,0.7747,0.3711,1.0351,0.24738,0.2605,0.54035,0.3907,0.8789,0.3907,0.49478,0,0.91796-0.2474,1.2695-0.7422l0.23437-0.3125c0.0651-0.039,0.20832-0.085,0.42969-0.1367zm-5.7422-0.5664c0.0911-1.6537,0.13671-2.819,0.13672-3.4961-0.00001-0.3516-0.0195-0.8268-0.0586-1.4258-0.87241,0.3125-1.7969,0.7878-2.7734,1.4258-0.97657,0.638-1.7513,1.3737-2.3242,2.207-0.41667,0.599-0.625,1.1654-0.625,1.6992,0,0.5078,0.17252,0.931,0.51758,1.2695,0.34504,0.3386,0.77799,0.5079,1.2988,0.5079,0.40364,0,0.89192-0.1433,1.4648-0.4297,0.7552-0.3776,1.543-0.9636,2.3633-1.7578z"/>
   <path id="path3060" d="m253.99,1031.3c0.32552-0.091,0.70312-0.1693,1.1328-0.2344,0.82031-0.1171,1.3118-0.2539,1.4746-0.4101,0.16276-0.1563,0.24414-0.5143,0.24414-1.0742l0.0391-0.7032c0.013-0.2604,0.0195-0.5924,0.0195-0.9961l-0.0391-5.996c0-0.8073-0.10417-1.3282-0.3125-1.5625-0.35156-0.3646-1.0026-0.6185-1.9531-0.7618v-0.7031c0.95052-0.2604,1.6797-0.5989,2.1875-1.0156,0.74218-0.5859,1.3672-1.3802,1.875-2.3828l0.66406,0.02c0.0391,0.612,0.0586,1.0482,0.0586,1.3086v1.2891l0.0195,0.3515c0.15624-0.1041,0.33853-0.2343,0.54687-0.3906,0.78124-0.5859,1.582-1.0644,2.4023-1.4355,0.82031-0.3711,1.5495-0.6283,2.1875-0.7715,0.40364-0.1042,0.85937-0.1563,1.3672-0.1563,1.0677,0,1.9857,0.2865,2.7539,0.8594,0.76821,0.5729,1.2663,1.2468,1.4941,2.0215,0.22785,0.7747,0.34178,2.3144,0.3418,4.6191v2.9492c-0.00002,0.078-0.01,0.3386-0.0293,0.7813-0.0196,0.4427-0.0293,0.9505-0.0293,1.5234-0.00001,0.9115,0.0391,1.4909,0.11719,1.7383,0.0651,0.1693,0.23436,0.3385,0.50781,0.5078,1.25,0.1693,1.9792,0.3711,2.1875,0.6055v0.1562c-0.00002,0.1302-0.0391,0.293-0.11719,0.4883h-0.37109l-2.5781-0.02-2.5391,0.039c-0.93751,0.026-1.8034,0.02-2.5976-0.019l-0.11719-0.4101c-0.00001-0.078,0.0456-0.1823,0.13672-0.3125,0.35155-0.1563,0.84634-0.2605,1.4844-0.3125,0.37759-0.026,0.63801-0.065,0.78125-0.1172,0.14322-0.052,0.319-0.1563,0.52735-0.3125,0.15623-0.3125,0.23436-0.5729,0.23437-0.7813-0.00001-0.091-0.013-0.2734-0.0391-0.5469-0.0391-0.5989-0.0651-2.0898-0.0781-4.4726v-1.0156l0.0391-1.5625c-0.00002-1.6797-0.33856-2.8386-1.0156-3.4766-0.67709-0.638-1.582-0.957-2.7148-0.957-0.87241,0-1.7253,0.192-2.5586,0.5761-0.83334,0.3842-1.6406,0.9603-2.4219,1.7286-0.0261,0.625-0.0391,1.1588-0.0391,1.6015l0.0586,4.3164c0,2.2526,0.0326,3.6328,0.0977,4.1407,0.026,0.2083,0.0716,0.3515,0.13672,0.4296,0.10416,0.1042,0.31249,0.1888,0.625,0.2539,0.31249,0.065,0.67382,0.1563,1.084,0.2735,0.41015,0.1172,0.68033,0.1888,0.81055,0.2148,0.2604,0.065,0.43619,0.1953,0.52734,0.3907l-0.0195,0.3906h-2.0508l-4.2188-0.059c-0.97657,0.026-1.595,0.039-1.8555,0.039h-0.48828l-0.0391-0.2539c0-0.091,0.0195-0.2213,0.0586-0.3906z"/>
   <path id="path3062" d="m289.51,1029.3c0.0781,0.1692,0.11718,0.2929,0.11719,0.3711-0.00001,0.1953-0.15626,0.5403-0.46875,1.0351-0.40366,0.6511-0.85288,1.1263-1.3477,1.4258-0.31251,0.1953-0.7422,0.293-1.2891,0.293-0.93751,0-1.6406-0.2865-2.1094-0.8594-0.28647-0.3385-0.48829-0.944-0.60547-1.8164l-2.1875,1.5234c-0.76824,0.4427-1.3542,0.7227-1.7578,0.8399-0.65105,0.1692-1.4323,0.2539-2.3438,0.2539-0.66407,0-1.1882-0.1986-1.5723-0.5957-0.38412-0.3972-0.57617-0.9082-0.57617-1.5332,0-0.8985,0.55013-1.9727,1.6504-3.2227s2.5944-2.2721,4.4824-3.0664c1.3281-0.5599,2.1419-0.918,2.4414-1.0742,0.026-0.4297,0.039-0.8984,0.0391-1.4063-0.00001-1.6536-0.23113-2.7734-0.69336-3.3593-0.46225-0.586-1.123-0.8789-1.9824-0.8789-0.89845,0-1.7383,0.3515-2.5195,1.0546-0.48178,0.4428-0.84636,1.2761-1.0938,2.5-0.0781,0.3386-0.22787,0.7032-0.44922,1.0938-0.5599,0.3646-1.0091,0.5469-1.3477,0.5469-0.28646,0-0.54687-0.085-0.78125-0.2539-0.13021-0.091-0.19531-0.1953-0.19531-0.3125,0-0.3386,0.36133-1.1035,1.084-2.295,0.72266-1.1914,1.6341-2.0833,2.7344-2.6757,1.1002-0.5925,2.0605-0.8887,2.8809-0.8887,1.1198,0,1.9531,0.1009,2.5,0.3027,0.54686,0.2019,1.0286,0.5567,1.4453,1.0645,0.41666,0.5078,0.67056,1.0612,0.76172,1.6601,0.0521,0.2865,0.0781,1.3086,0.0781,3.0664l-0.0586,3.1055,0.0195,2.2656c-0.00001,0.2995-0.007,0.5534-0.0195,0.7617-0.013,0.3777-0.0195,0.6576-0.0195,0.8399-0.00001,0.4297,0.12368,0.7747,0.37109,1.0351,0.24739,0.2605,0.54035,0.3907,0.87891,0.3907,0.49478,0,0.91795-0.2474,1.2695-0.7422l0.23438-0.3125c0.0651-0.039,0.20831-0.085,0.42968-0.1367zm-5.7422-0.5664c0.0911-1.6537,0.1367-2.819,0.13671-3.4961-0.00001-0.3516-0.0195-0.8268-0.0586-1.4258-0.8724,0.3125-1.7969,0.7878-2.7734,1.4258-0.97657,0.638-1.7513,1.3737-2.3242,2.207-0.41667,0.599-0.625,1.1654-0.625,1.6992,0,0.5078,0.17253,0.931,0.51758,1.2695,0.34505,0.3386,0.77799,0.5079,1.2988,0.5079,0.40364,0,0.89192-0.1433,1.4648-0.4297,0.7552-0.3776,1.543-0.9636,2.3633-1.7578z"/>
  </g>
 </g>
</svg>
